# xmcd CD database file
#
# Track frame offsets:
#	150
#	14811
#	28911
#	45348
#	62274
#	77599
#	91406
#	108781
#	123954
#	139756
#	152801
#	166500
#	179707
#	192893
#	209698
#
# Disc length: 2995 seconds
#
# Revision: 2
# Processed by: cddbd v1.5.2PL0 Copyright (c) Steve Scherf et al.
# Submitted via: CDex 1.51
#
DISCID=c20bb10f
DTITLE=Jason Aldean - Old Boots, New Dirt
DYEAR=2014
DGENRE=Country
TTITLE0=Just Gettin' Started
TTITLE1=Show You Off
TTITLE2=Burnin' It Down
TTITLE3=Tryin' To Love Me
TTITLE4=Sweet Little Somethin'
TTITLE5=Laid Back
TTITLE6=Tonight Looks Good On You
TTITLE7=Too Fast
TTITLE8=If My Truck Could Talk
TTITLE9=Old Boots, New Dirt
TTITLE10=I Took It With Me
TTITLE11=Don't Change Gone
TTITLE12=Miss That Girl
TTITLE13=Gonna Know We Were Here
TTITLE14=Two Night Town
EXTD=YEAR: 2014
EXTT0=
EXTT1=
EXTT2=
EXTT3=
EXTT4=
EXTT5=
EXTT6=
EXTT7=
EXTT8=
EXTT9=
EXTT10=
EXTT11=
EXTT12=
EXTT13=
EXTT14=
PLAYORDER=
